HIERARCHY
ROOT Hips
{
    OFFSET 0.000000 0.000000 0.000000
    CHANNELS 6 Xposition Yposition Zposition Zrotation Xrotation Yrotation
    JOINT Spine
    {
        OFFSET -0.000000 14.517291 0.000000
        CHANNELS 3 Zrotation Xrotation Yrotation
        JOINT Spine1
        {
            OFFSET -0.000000 37.558300 0.000000
            CHANNELS 3 Zrotation Xrotation Yrotation
            JOINT Neck
            {
                OFFSET -0.000000 37.404057 3.400369
                CHANNELS 3 Zrotation Xrotation Yrotation
                JOINT Head
                {
                    OFFSET -0.000000 24.785618 -3.540803
                    CHANNELS 3 Zrotation Xrotation Yrotation
                    End Site
                    {
                        OFFSET -0.000000 35.408028 0.000000
                    }
                }
            }
            JOINT LeftShoulder
            {
                OFFSET 6.992933 33.973492 -0.192664
                CHANNELS 3 Zrotation Xrotation Yrotation
                JOINT LeftArm
                {
                    OFFSET 21.527611 0.000000 0.000000
                    CHANNELS 3 Zrotation Xrotation Yrotation
                    JOINT LeftForeArm
                    {
                        OFFSET 56.353916 0.000000 0.000000
                        CHANNELS 3 Zrotation Xrotation Yrotation
                        JOINT LeftHand
                        {
                            OFFSET 47.774071 0.000000 0.000000
                            CHANNELS 3 Zrotation Xrotation Yrotation
                            End Site
                            {
                                OFFSET 26.556021 0.000000 0.000000
                            }
                        }
                    }
                }
            }
            JOINT RightShoulder
            {
                OFFSET -7.065357 33.973492 -0.192664
                CHANNELS 3 Zrotation Xrotation Yrotation
                JOINT RightArm
                {
                    OFFSET -21.527611 0.000000 0.000000
                    CHANNELS 3 Zrotation Xrotation Yrotation
                    JOINT RightForeArm
                    {
                        OFFSET -56.353916 0.000000 0.000000
                        CHANNELS 3 Zrotation Xrotation Yrotation
                        JOINT RightHand
                        {
                            OFFSET -47.774071 0.000000 0.000000
                            CHANNELS 3 Zrotation Xrotation Yrotation
                            End Site
                            {
                                OFFSET -26.556021 0.000000 0.000000
                            }
                        }
                    }
                }
            }
        }
    }
    JOINT LeftUpLeg
    {
        OFFSET 17.704014 0.000000 0.000000
        CHANNELS 3 Zrotation Xrotation Yrotation
        JOINT LeftLeg
        {
            OFFSET -0.000000 -81.181816 0.000000
            CHANNELS 3 Zrotation Xrotation Yrotation
            JOINT LeftFoot
            {
                OFFSET -0.000000 -62.821102 0.000000
                CHANNELS 3 Zrotation Xrotation Yrotation
                JOINT LeftToeBase
                {
                    OFFSET -0.000000 -11.507608 26.556021
                    CHANNELS 3 Zrotation Xrotation Yrotation
                    End Site
                    {
                        OFFSET -0.000000 0.000000 7.081605
                    }
                }
            }
        }
    }
    JOINT RightUpLeg
    {
        OFFSET -17.704014 0.000000 0.000000
        CHANNELS 3 Zrotation Xrotation Yrotation
        JOINT RightLeg
        {
            OFFSET -0.000000 -81.181816 0.000000
            CHANNELS 3 Zrotation Xrotation Yrotation
            JOINT RightFoot
            {
                OFFSET -0.000000 -62.821102 0.000000
                CHANNELS 3 Zrotation Xrotation Yrotation
                JOINT RightToeBase
                {
                    OFFSET -0.000000 -11.507608 26.556021
                    CHANNELS 3 Zrotation Xrotation Yrotation
                    End Site
                    {
                        OFFSET -0.000000 0.000000 7.081605
                    }
                }
            }
        }
    }
}
MOTION
Frames:    4
Frame Time:    0.008333
13.965097    152.117477    -105.106117    1.173906    -4.831147    27.666986    -0.183789    1.268225    0.584320    -5.225909    1.247764    0.251150    4.456285    2.501413    -13.205072    12.139227    1.759119    -12.798217    5.065076    8.342916    -16.410925    -26.285835    23.329058    -59.041862    -1.234168    -10.379700    -100.892471    10.314147    -12.748519    -10.205306    -9.639583    -1.369728    -1.311302    25.457945    -24.716663    54.360603    -20.623007    -14.191863    61.287735    -3.642923    -3.181079    37.669472    15.465280    -1.847736    1.235545    -14.855180    39.657726    -16.370768    6.644525    -31.437510    43.836113    0.000000    0.000000    0.000000    -23.317207    -12.962893    -38.147629    11.272548    22.238335    -20.947351    -4.820443    5.666883    -28.395346    0.000000    0.000000    0.000000    
13.991645    152.109894    -105.139519    1.184518    -4.814693    27.668894    0.090330    0.468840    1.218322    -6.441214    3.159490    0.583605    6.447862    1.057435    -13.363137    11.107020    1.690194    -13.423262    7.396819    7.539477    -16.647949    -26.496943    23.402279    -60.602840    -2.881161    -11.720157    -101.137444    8.812696    -15.956860    -11.112870    -8.613890    -2.383657    -2.744704    24.568914    -24.098616    54.318893    -21.164499    -14.957958    60.267998    -3.346800    -3.810209    38.172882    15.438253    -1.875620    1.256695    -14.853103    39.689323    -16.362097    6.630388    -31.456282    43.816422    0.000000    0.000000    0.000000    -23.347586    -12.977066    -38.100677    11.289965    22.225100    -20.988470    -4.812517    5.674592    -28.402483    0.000000    0.000000    0.000000    
14.015964    152.099960    -105.178574    1.193755    -4.788369    27.660307    -0.730850    1.065283    1.118988    -4.565704    1.504827    0.430634    5.070499    2.563481    -13.464413    11.502818    1.336851    -13.182363    5.440788    8.388643    -17.378462    -26.745106    23.135805    -58.985058    -3.262851    -10.806571    -101.257813    8.917541    -15.545432    -11.370407    -9.415103    -1.460849    -1.891134    24.759481    -24.600714    54.003094    -20.689568    -14.330844    60.931683    -3.572433    -3.357144    37.946632    15.410854    -1.913112    1.295617    -14.859995    39.723743    -16.348169    6.656147    -31.439995    43.792377    0.000000    0.000000    0.000000    -23.385555    -13.004807    -38.021843    11.327146    22.208838    -21.004108    -4.801316    5.690822    -28.463337    0.000000    0.000000    0.000000    
14.044457    152.088409    -105.212875    1.209572    -4.762007    27.644960    0.098796    0.450456    1.222243    -6.449555    3.134965    0.583777    6.461034    1.048656    -13.354079    11.058421    1.679044    -13.421120    7.402012    7.516005    -16.648323    -26.482067    23.414227    -60.545429    -2.883064    -11.691418    -101.156097    8.800503    -15.929417    -11.092371    -8.623689    -2.378635    -2.722596    24.548456    -24.110155    54.307930    -21.159168    -14.919489    60.247028    -3.330967    -3.773045    38.162624    15.377728    -1.939741    1.316652    -14.878165    39.751511    -16.325039    6.656301    -31.444212    43.768032    0.000000    0.000000    0.000000    -23.431166    -13.035502    -37.939137    11.358919    22.204285    -21.037888    -4.799711    5.699634    -28.482744    0.000000    0.000000    0.000000    
